# xmcd
#
# Track frame offsets:
# 150
# 9887
# 18357
# 26109
# 35057
# 39853
# 49284
# 62122
# 70381
# 77406
# 83104
# 87300
# 102194
# 108312
# 117200
# 126945
# 136375
# 144917
# 151274
# 160999
# 164786
# 172824
# 180884
# 187061
# 196003
# 205680
# 211532
# 219767
# 224476
# 231520
# 235212
# 247896
# 257020
# 266238
# 277102
# 288603
# 295897
# 304514
#
# Disc length: 4174 seconds
#
# Revision: 1
# Processed by: cddbd v1.5.2PL0 Copyright (c) Steve Scherf et al.
# Submitted via: B's Recorder GOLD CDDB Client
#
DISCID=1c104c26
DTITLE=オムニバス - NHKにほんごであそぼCD「百」~たっぷりうたづくし~
DYEAR=1900
DGENRE=
TTITLE0=1より小さいかず
TTITLE1=まちがいの狂言~ややこしや~
TTITLE2=でんでらりゅうば
TTITLE3=私と小鳥と鈴と
TTITLE4=ぴっとんへべへべ
TTITLE5=たまげた駒下駄東下駄
TTITLE6=おっと合点承知之助音頭
TTITLE7=ぎおんしょうじゃ
TTITLE8=いっさやっちゃ
TTITLE9=一茶の雀
TTITLE10=さよならさんかく
TTITLE11=法螺侍~どうどうけろけろどうぢゃいな~
TTITLE12=かんかんづくし
TTITLE13=吾輩は猫である
TTITLE14=まくらことば
TTITLE15=じゅげむじゅげむ
TTITLE16=山のあなた
TTITLE17=しゃばじゃばじゃ
TTITLE18=ほうふくじゆうびんぼう
TTITLE19=がらぴい
TTITLE20=はるはあけぼの
TTITLE21=いちじゅうひゃくせん
TTITLE22=ひとみごろ
TTITLE23=かぞえてナンボ
TTITLE24=デロレン四字熟語
TTITLE25=いろは!
TTITLE26=つれづれなるままに
TTITLE27=モシャシャ
TTITLE28=藤村の前髪
TTITLE29=え~と
TTITLE30=あいうえうた
TTITLE31=子らを思ふ歌
TTITLE32=銀の滴~ピリカチカッポ~
TTITLE33=月のうた
TTITLE34=雨ニモマケズ
TTITLE35=諭吉の学問
TTITLE36=あかたすんどぅんち~しーやーぷー~
TTITLE37=こころよ
EXTD=
EXTT0=
EXTT1=
EXTT2=
EXTT3=
EXTT4=
EXTT5=
EXTT6=
EXTT7=
EXTT8=
EXTT9=
EXTT10=
EXTT11=
EXTT12=
EXTT13=
EXTT14=
EXTT15=
EXTT16=
EXTT17=
EXTT18=
EXTT19=
EXTT20=
EXTT21=
EXTT22=
EXTT23=
EXTT24=
EXTT25=
EXTT26=
EXTT27=
EXTT28=
EXTT29=
EXTT30=
EXTT31=
EXTT32=
EXTT33=
EXTT34=
EXTT35=
EXTT36=
EXTT37=
PLAYORDER=
